# 3ds Max Wavefront OBJ Exporter v0.97b - (c)2007 guruware
# File Created: 15.05.2019 19:41:49

mtllib GUENISIMO.mtl

#
# object Tube001
#

v  -0.2373 0.0000 -23.0296
v  -0.2373 245.2513 -23.0296
v  7.5850 245.2513 -21.6503
v  7.5850 0.0000 -21.6503
v  -0.2373 490.5027 -23.0296
v  7.5850 490.5027 -21.6503
v  -0.2373 735.7540 -23.0296
v  7.5850 735.7540 -21.6503
v  -0.2373 981.0053 -23.0296
v  7.5850 981.0053 -21.6503
v  -0.2373 1226.2566 -23.0296
v  7.5850 1226.2566 -21.6503
v  -0.2373 1226.2566 -21.5567
v  7.0812 1226.2566 -20.2662
v  -0.2373 981.0053 -21.5567
v  7.0812 981.0053 -20.2662
v  -0.2373 735.7540 -21.5567
v  7.0812 735.7540 -20.2662
v  -0.2373 490.5026 -21.5567
v  7.0812 490.5026 -20.2662
v  -0.2373 245.2513 -21.5567
v  7.0812 245.2513 -20.2662
v  -0.2373 0.0000 -21.5567
v  7.0812 0.0000 -20.2662
v  14.4638 245.2513 -17.6788
v  14.4638 0.0000 -17.6788
v  14.4638 490.5027 -17.6788
v  14.4638 735.7540 -17.6788
v  14.4638 981.0053 -17.6788
v  14.4638 1226.2566 -17.6788
v  13.5170 1226.2566 -16.5505
v  13.5170 981.0053 -16.5505
v  13.5170 735.7540 -16.5505
v  13.5170 490.5026 -16.5505
v  13.5170 245.2513 -16.5505
v  13.5170 0.0000 -16.5505
v  19.5694 245.2513 -11.5942
v  19.5694 0.0000 -11.5942
v  19.5694 490.5027 -11.5942
v  19.5694 735.7540 -11.5942
v  19.5694 981.0053 -11.5942
v  19.5694 1226.2566 -11.5942
v  18.2938 1226.2566 -10.8577
v  18.2938 981.0053 -10.8577
v  18.2938 735.7540 -10.8577
v  18.2938 490.5026 -10.8577
v  18.2938 245.2513 -10.8577
v  18.2938 0.0000 -10.8577
v  22.2861 245.2513 -4.1302
v  22.2861 0.0000 -4.1302
v  22.2861 490.5027 -4.1302
v  22.2861 735.7540 -4.1302
v  22.2861 981.0053 -4.1302
v  22.2861 1226.2566 -4.1302
v  20.8355 1226.2566 -3.8744
v  20.8355 981.0053 -3.8744
v  20.8355 735.7540 -3.8744
v  20.8355 490.5026 -3.8744
v  20.8355 245.2513 -3.8744
v  20.8355 0.0000 -3.8744
v  22.2861 245.2513 3.8128
v  22.2861 0.0000 3.8128
v  22.2861 490.5027 3.8128
v  22.2861 735.7540 3.8128
v  22.2861 981.0053 3.8128
v  22.2861 1226.2566 3.8128
v  20.8355 1226.2566 3.5570
v  20.8355 981.0053 3.5570
v  20.8355 735.7540 3.5570
v  20.8355 490.5026 3.5570
v  20.8355 245.2513 3.5570
v  20.8355 0.0000 3.5570
v  19.5694 245.2513 11.2767
v  19.5694 0.0000 11.2767
v  19.5694 490.5027 11.2767
v  19.5694 735.7540 11.2767
v  19.5694 981.0053 11.2767
v  19.5694 1226.2566 11.2767
v  18.2938 1226.2566 10.5402
v  18.2938 981.0053 10.5402
v  18.2938 735.7540 10.5402
v  18.2938 490.5026 10.5402
v  18.2938 245.2513 10.5402
v  18.2938 0.0000 10.5402
v  14.4638 245.2513 17.3614
v  14.4638 0.0000 17.3614
v  14.4638 490.5027 17.3614
v  14.4638 735.7540 17.3614
v  14.4638 981.0053 17.3614
v  14.4638 1226.2566 17.3614
v  13.5170 1226.2566 16.2330
v  13.5170 981.0053 16.2330
v  13.5170 735.7540 16.2330
v  13.5170 490.5026 16.2330
v  13.5170 245.2513 16.2330
v  13.5170 0.0000 16.2330
v  7.5850 245.2513 21.3328
v  7.5850 0.0000 21.3328
v  7.5850 490.5027 21.3328
v  7.5850 735.7540 21.3328
v  7.5850 981.0053 21.3328
v  7.5850 1226.2566 21.3328
v  7.0812 1226.2566 19.9488
v  7.0812 981.0053 19.9488
v  7.0812 735.7540 19.9488
v  7.0812 490.5026 19.9488
v  7.0812 245.2513 19.9488
v  7.0812 0.0000 19.9488
v  -0.2373 245.2513 22.7121
v  -0.2373 0.0000 22.7121
v  -0.2373 490.5027 22.7121
v  -0.2373 735.7540 22.7121
v  -0.2373 981.0053 22.7121
v  -0.2373 1226.2566 22.7121
v  -0.2373 1226.2566 21.2392
v  -0.2373 981.0053 21.2392
v  -0.2373 735.7540 21.2392
v  -0.2373 490.5026 21.2392
v  -0.2373 245.2513 21.2392
v  -0.2373 0.0000 21.2392
v  -8.0596 245.2513 21.3328
v  -8.0596 0.0000 21.3328
v  -8.0596 490.5027 21.3328
v  -8.0596 735.7540 21.3328
v  -8.0596 981.0053 21.3328
v  -8.0596 1226.2566 21.3328
v  -7.5558 1226.2566 19.9488
v  -7.5558 981.0053 19.9488
v  -7.5558 735.7540 19.9488
v  -7.5558 490.5026 19.9488
v  -7.5558 245.2513 19.9488
v  -7.5558 0.0000 19.9488
v  -14.9384 245.2513 17.3614
v  -14.9384 0.0000 17.3614
v  -14.9384 490.5027 17.3614
v  -14.9384 735.7540 17.3614
v  -14.9384 981.0053 17.3614
v  -14.9384 1226.2566 17.3614
v  -13.9916 1226.2566 16.2330
v  -13.9916 981.0053 16.2330
v  -13.9916 735.7540 16.2330
v  -13.9916 490.5026 16.2330
v  -13.9916 245.2513 16.2330
v  -13.9916 0.0000 16.2330
v  -20.0441 245.2513 11.2767
v  -20.0441 0.0000 11.2767
v  -20.0441 490.5027 11.2767
v  -20.0441 735.7540 11.2767
v  -20.0441 981.0053 11.2767
v  -20.0441 1226.2566 11.2767
v  -18.7685 1226.2566 10.5402
v  -18.7685 981.0053 10.5402
v  -18.7685 735.7540 10.5402
v  -18.7685 490.5026 10.5402
v  -18.7685 245.2513 10.5402
v  -18.7685 0.0000 10.5402
v  -22.7607 245.2513 3.8128
v  -22.7607 0.0000 3.8128
v  -22.7607 490.5027 3.8128
v  -22.7607 735.7540 3.8128
v  -22.7607 981.0053 3.8128
v  -22.7607 1226.2566 3.8128
v  -21.3102 1226.2566 3.5570
v  -21.3102 981.0053 3.5570
v  -21.3102 735.7540 3.5570
v  -21.3102 490.5026 3.5570
v  -21.3102 245.2513 3.5570
v  -21.3102 0.0000 3.5570
v  -22.7607 245.2513 -4.1302
v  -22.7607 0.0000 -4.1302
v  -22.7607 490.5027 -4.1302
v  -22.7607 735.7540 -4.1302
v  -22.7607 981.0053 -4.1302
v  -22.7607 1226.2566 -4.1302
v  -21.3102 1226.2566 -3.8744
v  -21.3102 981.0053 -3.8744
v  -21.3102 735.7540 -3.8744
v  -21.3102 490.5026 -3.8744
v  -21.3102 245.2513 -3.8744
v  -21.3102 0.0000 -3.8744
v  -20.0441 245.2513 -11.5942
v  -20.0441 0.0000 -11.5942
v  -20.0441 490.5027 -11.5942
v  -20.0441 735.7540 -11.5942
v  -20.0441 981.0053 -11.5942
v  -20.0441 1226.2566 -11.5942
v  -18.7685 1226.2566 -10.8577
v  -18.7685 981.0053 -10.8577
v  -18.7685 735.7540 -10.8577
v  -18.7685 490.5026 -10.8577
v  -18.7685 245.2513 -10.8577
v  -18.7685 0.0000 -10.8577
v  -14.9384 245.2513 -17.6788
v  -14.9384 0.0000 -17.6788
v  -14.9384 490.5027 -17.6788
v  -14.9384 735.7540 -17.6788
v  -14.9384 981.0053 -17.6788
v  -14.9384 1226.2566 -17.6788
v  -13.9916 1226.2566 -16.5505
v  -13.9916 981.0053 -16.5505
v  -13.9916 735.7540 -16.5505
v  -13.9916 490.5026 -16.5505
v  -13.9916 245.2513 -16.5505
v  -13.9916 0.0000 -16.5505
v  -8.0596 245.2513 -21.6503
v  -8.0596 0.0000 -21.6503
v  -8.0596 490.5027 -21.6503
v  -8.0596 735.7540 -21.6503
v  -8.0596 981.0053 -21.6503
v  -8.0596 1226.2566 -21.6503
v  -7.5558 1226.2566 -20.2662
v  -7.5558 981.0053 -20.2662
v  -7.5558 735.7540 -20.2662
v  -7.5558 490.5026 -20.2662
v  -7.5558 245.2513 -20.2662
v  -7.5558 0.0000 -20.2662
# 216 vertices

vn -0.0000 -0.6701 -0.7423
vn -0.0000 0.0000 -1.0000
vn 0.3420 0.0000 -0.9397
vn 0.2539 -0.6701 -0.6975
vn -0.0000 0.6701 -0.7423
vn 0.2539 0.6701 -0.6975
vn -0.0000 0.7484 0.6633
vn -0.2269 0.7484 0.6233
vn -0.0000 0.0000 1.0000
vn -0.3420 0.0000 0.9397
vn -0.0000 -0.7484 0.6633
vn -0.2269 -0.7484 0.6233
vn 0.6428 0.0000 -0.7660
vn 0.4772 -0.6700 -0.5687
vn 0.4772 0.6700 -0.5687
vn -0.4264 0.7484 0.5081
vn -0.6428 0.0000 0.7660
vn -0.4264 -0.7484 0.5081
vn 0.8660 0.0000 -0.5000
vn 0.6429 -0.6700 -0.3712
vn 0.6429 0.6700 -0.3712
vn -0.5744 0.7484 0.3316
vn -0.8660 0.0000 0.5000
vn -0.5744 -0.7484 0.3316
vn 0.9848 0.0000 -0.1736
vn 0.7311 -0.6700 -0.1289
vn 0.7311 0.6700 -0.1289
vn -0.6532 0.7484 0.1152
vn -0.9848 0.0000 0.1736
vn -0.6532 -0.7484 0.1152
vn 0.9848 0.0000 0.1736
vn 0.7311 -0.6700 0.1289
vn 0.7311 0.6700 0.1289
vn -0.6532 0.7484 -0.1152
vn -0.9848 0.0000 -0.1736
vn -0.6532 -0.7484 -0.1152
vn 0.8660 0.0000 0.5000
vn 0.6429 -0.6700 0.3712
vn 0.6429 0.6700 0.3712
vn -0.5744 0.7484 -0.3316
vn -0.8660 0.0000 -0.5000
vn -0.5744 -0.7484 -0.3316
vn 0.6428 0.0000 0.7660
vn 0.4772 -0.6700 0.5687
vn 0.4772 0.6700 0.5687
vn -0.4264 0.7484 -0.5081
vn -0.6428 0.0000 -0.7660
vn -0.4264 -0.7484 -0.5081
vn 0.3420 0.0000 0.9397
vn 0.2539 -0.6700 0.6976
vn 0.2539 0.6700 0.6976
vn -0.2269 0.7484 -0.6233
vn -0.3420 0.0000 -0.9397
vn -0.2269 -0.7484 -0.6233
vn -0.0000 -0.6700 0.7423
vn -0.0000 0.6700 0.7423
vn 0.0000 0.7484 -0.6633
vn 0.0000 0.0000 -1.0000
vn 0.0000 -0.7484 -0.6633
vn -0.2539 -0.6700 0.6976
vn -0.2539 0.6700 0.6976
vn 0.2269 0.7484 -0.6233
vn 0.2269 -0.7484 -0.6233
vn -0.4772 -0.6700 0.5687
vn -0.4772 0.6700 0.5687
vn 0.4263 0.7484 -0.5081
vn 0.6428 0.0000 -0.7661
vn 0.4263 -0.7484 -0.5081
vn -0.6428 -0.6701 0.3712
vn -0.6428 0.6701 0.3712
vn 0.5744 0.7484 -0.3316
vn 0.5744 -0.7484 -0.3316
vn -0.7310 -0.6701 0.1289
vn -0.7310 0.6701 0.1289
vn 0.6532 0.7484 -0.1152
vn 0.6532 -0.7484 -0.1152
vn -0.7311 -0.6700 -0.1289
vn -0.7311 0.6700 -0.1289
vn 0.6532 0.7484 0.1152
vn 0.6532 -0.7484 0.1152
vn -0.6429 -0.6700 -0.3712
vn -0.6429 0.6700 -0.3712
vn 0.5744 0.7484 0.3316
vn 0.5744 -0.7484 0.3316
vn -0.4772 -0.6700 -0.5687
vn -0.4772 0.6700 -0.5687
vn 0.4263 0.7484 0.5081
vn 0.6428 0.0000 0.7661
vn 0.4263 -0.7484 0.5081
vn -0.2539 -0.6700 -0.6976
vn -0.2539 0.6700 -0.6976
vn 0.2269 0.7484 0.6232
vn 0.2269 -0.7484 0.6232
# 93 vertex normals

vt 0.0000 0.0000 0.0000
vt 0.0833 0.0000 0.0000
vt 0.0833 0.0556 0.0000
vt 0.0000 0.0556 0.0000
vt 0.1667 0.0000 0.0000
vt 0.1667 0.0556 0.0000
vt 0.2500 0.0000 0.0000
vt 0.2500 0.0556 0.0000
vt 0.3333 0.0000 0.0000
vt 0.3333 0.0556 0.0000
vt 0.4167 0.0000 0.0000
vt 0.4167 0.0556 0.0000
vt 0.5000 0.0000 0.0000
vt 0.5000 0.0556 0.0000
vt 0.5833 0.0000 0.0000
vt 0.5833 0.0556 0.0000
vt 0.6667 0.0000 0.0000
vt 0.6667 0.0556 0.0000
vt 0.7500 0.0000 0.0000
vt 0.7500 0.0556 0.0000
vt 0.8333 0.0000 0.0000
vt 0.8333 0.0556 0.0000
vt 0.9167 0.0000 0.0000
vt 0.9167 0.0556 0.0000
vt 1.0000 0.0000 0.0000
vt 1.0000 0.0556 0.0000
vt 0.0833 0.1111 0.0000
vt 0.0000 0.1111 0.0000
vt 0.1667 0.1111 0.0000
vt 0.2500 0.1111 0.0000
vt 0.3333 0.1111 0.0000
vt 0.4167 0.1111 0.0000
vt 0.5000 0.1111 0.0000
vt 0.5833 0.1111 0.0000
vt 0.6667 0.1111 0.0000
vt 0.7500 0.1111 0.0000
vt 0.8333 0.1111 0.0000
vt 0.9167 0.1111 0.0000
vt 1.0000 0.1111 0.0000
vt 0.0833 0.1667 0.0000
vt 0.0000 0.1667 0.0000
vt 0.1667 0.1667 0.0000
vt 0.2500 0.1667 0.0000
vt 0.3333 0.1667 0.0000
vt 0.4167 0.1667 0.0000
vt 0.5000 0.1667 0.0000
vt 0.5833 0.1667 0.0000
vt 0.6667 0.1667 0.0000
vt 0.7500 0.1667 0.0000
vt 0.8333 0.1667 0.0000
vt 0.9167 0.1667 0.0000
vt 1.0000 0.1667 0.0000
vt 0.0833 0.2222 0.0000
vt 0.0000 0.2222 0.0000
vt 0.1667 0.2222 0.0000
vt 0.2500 0.2222 0.0000
vt 0.3333 0.2222 0.0000
vt 0.4167 0.2222 0.0000
vt 0.5000 0.2222 0.0000
vt 0.5833 0.2222 0.0000
vt 0.6667 0.2222 0.0000
vt 0.7500 0.2222 0.0000
vt 0.8333 0.2222 0.0000
vt 0.9167 0.2222 0.0000
vt 1.0000 0.2222 0.0000
vt 0.0833 0.2778 0.0000
vt 0.0000 0.2778 0.0000
vt 0.1667 0.2778 0.0000
vt 0.2500 0.2778 0.0000
vt 0.3333 0.2778 0.0000
vt 0.4167 0.2778 0.0000
vt 0.5000 0.2778 0.0000
vt 0.5833 0.2778 0.0000
vt 0.6667 0.2778 0.0000
vt 0.7500 0.2778 0.0000
vt 0.8333 0.2778 0.0000
vt 0.9167 0.2778 0.0000
vt 1.0000 0.2778 0.0000
vt 0.0833 0.3333 0.0000
vt 0.0000 0.3333 0.0000
vt 0.1667 0.3333 0.0000
vt 0.2500 0.3333 0.0000
vt 0.3333 0.3333 0.0000
vt 0.4167 0.3333 0.0000
vt 0.5000 0.3333 0.0000
vt 0.5833 0.3333 0.0000
vt 0.6667 0.3333 0.0000
vt 0.7500 0.3333 0.0000
vt 0.8333 0.3333 0.0000
vt 0.9167 0.3333 0.0000
vt 1.0000 0.3333 0.0000
vt 0.0833 0.3889 0.0000
vt 0.0000 0.3889 0.0000
vt 0.1667 0.3889 0.0000
vt 0.2500 0.3889 0.0000
vt 0.3333 0.3889 0.0000
vt 0.4167 0.3889 0.0000
vt 0.5000 0.3889 0.0000
vt 0.5833 0.3889 0.0000
vt 0.6667 0.3889 0.0000
vt 0.7500 0.3889 0.0000
vt 0.8333 0.3889 0.0000
vt 0.9167 0.3889 0.0000
vt 1.0000 0.3889 0.0000
vt 0.0833 0.4444 0.0000
vt 0.0000 0.4444 0.0000
vt 0.1667 0.4444 0.0000
vt 0.2500 0.4444 0.0000
vt 0.3333 0.4444 0.0000
vt 0.4167 0.4444 0.0000
vt 0.5000 0.4444 0.0000
vt 0.5833 0.4444 0.0000
vt 0.6667 0.4444 0.0000
vt 0.7500 0.4444 0.0000
vt 0.8333 0.4444 0.0000
vt 0.9167 0.4444 0.0000
vt 1.0000 0.4444 0.0000
vt 0.0833 0.5000 0.0000
vt 0.0000 0.5000 0.0000
vt 0.1667 0.5000 0.0000
vt 0.2500 0.5000 0.0000
vt 0.3333 0.5000 0.0000
vt 0.4167 0.5000 0.0000
vt 0.5000 0.5000 0.0000
vt 0.5833 0.5000 0.0000
vt 0.6667 0.5000 0.0000
vt 0.7500 0.5000 0.0000
vt 0.8333 0.5000 0.0000
vt 0.9167 0.5000 0.0000
vt 1.0000 0.5000 0.0000
vt 0.0833 0.5556 0.0000
vt 0.0000 0.5556 0.0000
vt 0.1667 0.5556 0.0000
vt 0.2500 0.5556 0.0000
vt 0.3333 0.5556 0.0000
vt 0.4167 0.5556 0.0000
vt 0.5000 0.5556 0.0000
vt 0.5833 0.5556 0.0000
vt 0.6667 0.5556 0.0000
vt 0.7500 0.5556 0.0000
vt 0.8333 0.5556 0.0000
vt 0.9167 0.5556 0.0000
vt 1.0000 0.5556 0.0000
vt 0.0833 0.6111 0.0000
vt 0.0000 0.6111 0.0000
vt 0.1667 0.6111 0.0000
vt 0.2500 0.6111 0.0000
vt 0.3333 0.6111 0.0000
vt 0.4167 0.6111 0.0000
vt 0.5000 0.6111 0.0000
vt 0.5833 0.6111 0.0000
vt 0.6667 0.6111 0.0000
vt 0.7500 0.6111 0.0000
vt 0.8333 0.6111 0.0000
vt 0.9167 0.6111 0.0000
vt 1.0000 0.6111 0.0000
vt 0.0833 0.6667 0.0000
vt 0.0000 0.6667 0.0000
vt 0.1667 0.6667 0.0000
vt 0.2500 0.6667 0.0000
vt 0.3333 0.6667 0.0000
vt 0.4167 0.6667 0.0000
vt 0.5000 0.6667 0.0000
vt 0.5833 0.6667 0.0000
vt 0.6667 0.6667 0.0000
vt 0.7500 0.6667 0.0000
vt 0.8333 0.6667 0.0000
vt 0.9167 0.6667 0.0000
vt 1.0000 0.6667 0.0000
vt 0.0833 0.7222 0.0000
vt 0.0000 0.7222 0.0000
vt 0.1667 0.7222 0.0000
vt 0.2500 0.7222 0.0000
vt 0.3333 0.7222 0.0000
vt 0.4167 0.7222 0.0000
vt 0.5000 0.7222 0.0000
vt 0.5833 0.7222 0.0000
vt 0.6667 0.7222 0.0000
vt 0.7500 0.7222 0.0000
vt 0.8333 0.7222 0.0000
vt 0.9167 0.7222 0.0000
vt 1.0000 0.7222 0.0000
vt 0.0833 0.7778 0.0000
vt 0.0000 0.7778 0.0000
vt 0.1667 0.7778 0.0000
vt 0.2500 0.7778 0.0000
vt 0.3333 0.7778 0.0000
vt 0.4167 0.7778 0.0000
vt 0.5000 0.7778 0.0000
vt 0.5833 0.7778 0.0000
vt 0.6667 0.7778 0.0000
vt 0.7500 0.7778 0.0000
vt 0.8333 0.7778 0.0000
vt 0.9167 0.7778 0.0000
vt 1.0000 0.7778 0.0000
vt 0.0833 0.8333 0.0000
vt 0.0000 0.8333 0.0000
vt 0.1667 0.8333 0.0000
vt 0.2500 0.8333 0.0000
vt 0.3333 0.8333 0.0000
vt 0.4167 0.8333 0.0000
vt 0.5000 0.8333 0.0000
vt 0.5833 0.8333 0.0000
vt 0.6667 0.8333 0.0000
vt 0.7500 0.8333 0.0000
vt 0.8333 0.8333 0.0000
vt 0.9167 0.8333 0.0000
vt 1.0000 0.8333 0.0000
vt 0.0833 0.8889 0.0000
vt 0.0000 0.8889 0.0000
vt 0.1667 0.8889 0.0000
vt 0.2500 0.8889 0.0000
vt 0.3333 0.8889 0.0000
vt 0.4167 0.8889 0.0000
vt 0.5000 0.8889 0.0000
vt 0.5833 0.8889 0.0000
vt 0.6667 0.8889 0.0000
vt 0.7500 0.8889 0.0000
vt 0.8333 0.8889 0.0000
vt 0.9167 0.8889 0.0000
vt 1.0000 0.8889 0.0000
vt 0.0833 0.9444 0.0000
vt 0.0000 0.9444 0.0000
vt 0.1667 0.9444 0.0000
vt 0.2500 0.9444 0.0000
vt 0.3333 0.9444 0.0000
vt 0.4167 0.9444 0.0000
vt 0.5000 0.9444 0.0000
vt 0.5833 0.9444 0.0000
vt 0.6667 0.9444 0.0000
vt 0.7500 0.9444 0.0000
vt 0.8333 0.9444 0.0000
vt 0.9167 0.9444 0.0000
vt 1.0000 0.9444 0.0000
vt 0.0833 1.0000 0.0000
vt 0.0000 1.0000 0.0000
vt 0.1667 1.0000 0.0000
vt 0.2500 1.0000 0.0000
vt 0.3333 1.0000 0.0000
vt 0.4167 1.0000 0.0000
vt 0.5000 1.0000 0.0000
vt 0.5833 1.0000 0.0000
vt 0.6667 1.0000 0.0000
vt 0.7500 1.0000 0.0000
vt 0.8333 1.0000 0.0000
vt 0.9167 1.0000 0.0000
vt 1.0000 1.0000 0.0000
# 247 texture coords

o Tube001
g Tube001
usemtl wire_141007058
s 2
f 1/1/1 2/2/2 3/3/3 4/4/4 
f 2/2/2 5/5/2 6/6/3 3/3/3 
f 5/5/2 7/7/2 8/8/3 6/6/3 
f 7/7/2 9/9/2 10/10/3 8/8/3 
f 9/9/2 11/11/5 12/12/6 10/10/3 
s 4
f 11/11/5 13/13/7 14/14/8 12/12/6 
s 2
f 13/13/7 15/15/9 16/16/10 14/14/8 
f 15/15/9 17/17/9 18/18/10 16/16/10 
f 17/17/9 19/19/9 20/20/10 18/18/10 
f 19/19/9 21/21/9 22/22/10 20/20/10 
f 21/21/9 23/23/11 24/24/12 22/22/10 
s 4
f 23/23/11 1/25/1 4/26/4 24/24/12 
s 2
f 4/4/4 3/3/3 25/27/13 26/28/14 
f 3/3/3 6/6/3 27/29/13 25/27/13 
f 6/6/3 8/8/3 28/30/13 27/29/13 
f 8/8/3 10/10/3 29/31/13 28/30/13 
f 10/10/3 12/12/6 30/32/15 29/31/13 
s 4
f 12/12/6 14/14/8 31/33/16 30/32/15 
s 2
f 14/14/8 16/16/10 32/34/17 31/33/16 
f 16/16/10 18/18/10 33/35/17 32/34/17 
f 18/18/10 20/20/10 34/36/17 33/35/17 
f 20/20/10 22/22/10 35/37/17 34/36/17 
f 22/22/10 24/24/12 36/38/18 35/37/17 
s 4
f 24/24/12 4/26/4 26/39/14 36/38/18 
s 2
f 26/28/14 25/27/13 37/40/19 38/41/20 
f 25/27/13 27/29/13 39/42/19 37/40/19 
f 27/29/13 28/30/13 40/43/19 39/42/19 
f 28/30/13 29/31/13 41/44/19 40/43/19 
f 29/31/13 30/32/15 42/45/21 41/44/19 
s 4
f 30/32/15 31/33/16 43/46/22 42/45/21 
s 2
f 31/33/16 32/34/17 44/47/23 43/46/22 
f 32/34/17 33/35/17 45/48/23 44/47/23 
f 33/35/17 34/36/17 46/49/23 45/48/23 
f 34/36/17 35/37/17 47/50/23 46/49/23 
f 35/37/17 36/38/18 48/51/24 47/50/23 
s 4
f 36/38/18 26/39/14 38/52/20 48/51/24 
s 2
f 38/41/20 37/40/19 49/53/25 50/54/26 
f 37/40/19 39/42/19 51/55/25 49/53/25 
f 39/42/19 40/43/19 52/56/25 51/55/25 
f 40/43/19 41/44/19 53/57/25 52/56/25 
f 41/44/19 42/45/21 54/58/27 53/57/25 
s 4
f 42/45/21 43/46/22 55/59/28 54/58/27 
s 2
f 43/46/22 44/47/23 56/60/29 55/59/28 
f 44/47/23 45/48/23 57/61/29 56/60/29 
f 45/48/23 46/49/23 58/62/29 57/61/29 
f 46/49/23 47/50/23 59/63/29 58/62/29 
f 47/50/23 48/51/24 60/64/30 59/63/29 
s 4
f 48/51/24 38/52/20 50/65/26 60/64/30 
s 2
f 50/54/26 49/53/25 61/66/31 62/67/32 
f 49/53/25 51/55/25 63/68/31 61/66/31 
f 51/55/25 52/56/25 64/69/31 63/68/31 
f 52/56/25 53/57/25 65/70/31 64/69/31 
f 53/57/25 54/58/27 66/71/33 65/70/31 
s 4
f 54/58/27 55/59/28 67/72/34 66/71/33 
s 2
f 55/59/28 56/60/29 68/73/35 67/72/34 
f 56/60/29 57/61/29 69/74/35 68/73/35 
f 57/61/29 58/62/29 70/75/35 69/74/35 
f 58/62/29 59/63/29 71/76/35 70/75/35 
f 59/63/29 60/64/30 72/77/36 71/76/35 
s 4
f 60/64/30 50/65/26 62/78/32 72/77/36 
s 2
f 62/67/32 61/66/31 73/79/37 74/80/38 
f 61/66/31 63/68/31 75/81/37 73/79/37 
f 63/68/31 64/69/31 76/82/37 75/81/37 
f 64/69/31 65/70/31 77/83/37 76/82/37 
f 65/70/31 66/71/33 78/84/39 77/83/37 
s 4
f 66/71/33 67/72/34 79/85/40 78/84/39 
s 2
f 67/72/34 68/73/35 80/86/41 79/85/40 
f 68/73/35 69/74/35 81/87/41 80/86/41 
f 69/74/35 70/75/35 82/88/41 81/87/41 
f 70/75/35 71/76/35 83/89/41 82/88/41 
f 71/76/35 72/77/36 84/90/42 83/89/41 
s 4
f 72/77/36 62/78/32 74/91/38 84/90/42 
s 2
f 74/80/38 73/79/37 85/92/43 86/93/44 
f 73/79/37 75/81/37 87/94/43 85/92/43 
f 75/81/37 76/82/37 88/95/43 87/94/43 
f 76/82/37 77/83/37 89/96/43 88/95/43 
f 77/83/37 78/84/39 90/97/45 89/96/43 
s 4
f 78/84/39 79/85/40 91/98/46 90/97/45 
s 2
f 79/85/40 80/86/41 92/99/47 91/98/46 
f 80/86/41 81/87/41 93/100/47 92/99/47 
f 81/87/41 82/88/41 94/101/47 93/100/47 
f 82/88/41 83/89/41 95/102/47 94/101/47 
f 83/89/41 84/90/42 96/103/48 95/102/47 
s 4
f 84/90/42 74/91/38 86/104/44 96/103/48 
s 2
f 86/93/44 85/92/43 97/105/49 98/106/50 
f 85/92/43 87/94/43 99/107/49 97/105/49 
f 87/94/43 88/95/43 100/108/49 99/107/49 
f 88/95/43 89/96/43 101/109/49 100/108/49 
f 89/96/43 90/97/45 102/110/51 101/109/49 
s 4
f 90/97/45 91/98/46 103/111/52 102/110/51 
s 2
f 91/98/46 92/99/47 104/112/53 103/111/52 
f 92/99/47 93/100/47 105/113/53 104/112/53 
f 93/100/47 94/101/47 106/114/53 105/113/53 
f 94/101/47 95/102/47 107/115/53 106/114/53 
f 95/102/47 96/103/48 108/116/54 107/115/53 
s 4
f 96/103/48 86/104/44 98/117/50 108/116/54 
s 2
f 98/106/50 97/105/49 109/118/9 110/119/55 
f 97/105/49 99/107/49 111/120/9 109/118/9 
f 99/107/49 100/108/49 112/121/9 111/120/9 
f 100/108/49 101/109/49 113/122/9 112/121/9 
f 101/109/49 102/110/51 114/123/56 113/122/9 
s 4
f 102/110/51 103/111/52 115/124/57 114/123/56 
s 2
f 103/111/52 104/112/53 116/125/58 115/124/57 
f 104/112/53 105/113/53 117/126/58 116/125/58 
f 105/113/53 106/114/53 118/127/58 117/126/58 
f 106/114/53 107/115/53 119/128/58 118/127/58 
f 107/115/53 108/116/54 120/129/59 119/128/58 
s 4
f 108/116/54 98/117/50 110/130/55 120/129/59 
s 2
f 110/119/55 109/118/9 121/131/10 122/132/60 
f 109/118/9 111/120/9 123/133/10 121/131/10 
f 111/120/9 112/121/9 124/134/10 123/133/10 
f 112/121/9 113/122/9 125/135/10 124/134/10 
f 113/122/9 114/123/56 126/136/61 125/135/10 
s 4
f 114/123/56 115/124/57 127/137/62 126/136/61 
s 2
f 115/124/57 116/125/58 128/138/3 127/137/62 
f 116/125/58 117/126/58 129/139/3 128/138/3 
f 117/126/58 118/127/58 130/140/3 129/139/3 
f 118/127/58 119/128/58 131/141/3 130/140/3 
f 119/128/58 120/129/59 132/142/63 131/141/3 
s 4
f 120/129/59 110/130/55 122/143/60 132/142/63 
s 2
f 122/132/60 121/131/10 133/144/17 134/145/64 
f 121/131/10 123/133/10 135/146/17 133/144/17 
f 123/133/10 124/134/10 136/147/17 135/146/17 
f 124/134/10 125/135/10 137/148/17 136/147/17 
f 125/135/10 126/136/61 138/149/65 137/148/17 
s 4
f 126/136/61 127/137/62 139/150/66 138/149/65 
s 2
f 127/137/62 128/138/3 140/151/67 139/150/66 
f 128/138/3 129/139/3 141/152/67 140/151/67 
f 129/139/3 130/140/3 142/153/67 141/152/67 
f 130/140/3 131/141/3 143/154/67 142/153/67 
f 131/141/3 132/142/63 144/155/68 143/154/67 
s 4
f 132/142/63 122/143/60 134/156/64 144/155/68 
s 2
f 134/145/64 133/144/17 145/157/23 146/158/69 
f 133/144/17 135/146/17 147/159/23 145/157/23 
f 135/146/17 136/147/17 148/160/23 147/159/23 
f 136/147/17 137/148/17 149/161/23 148/160/23 
f 137/148/17 138/149/65 150/162/70 149/161/23 
s 4
f 138/149/65 139/150/66 151/163/71 150/162/70 
s 2
f 139/150/66 140/151/67 152/164/19 151/163/71 
f 140/151/67 141/152/67 153/165/19 152/164/19 
f 141/152/67 142/153/67 154/166/19 153/165/19 
f 142/153/67 143/154/67 155/167/19 154/166/19 
f 143/154/67 144/155/68 156/168/72 155/167/19 
s 4
f 144/155/68 134/156/64 146/169/69 156/168/72 
s 2
f 146/158/69 145/157/23 157/170/29 158/171/73 
f 145/157/23 147/159/23 159/172/29 157/170/29 
f 147/159/23 148/160/23 160/173/29 159/172/29 
f 148/160/23 149/161/23 161/174/29 160/173/29 
f 149/161/23 150/162/70 162/175/74 161/174/29 
s 4
f 150/162/70 151/163/71 163/176/75 162/175/74 
s 2
f 151/163/71 152/164/19 164/177/25 163/176/75 
f 152/164/19 153/165/19 165/178/25 164/177/25 
f 153/165/19 154/166/19 166/179/25 165/178/25 
f 154/166/19 155/167/19 167/180/25 166/179/25 
f 155/167/19 156/168/72 168/181/76 167/180/25 
s 4
f 156/168/72 146/169/69 158/182/73 168/181/76 
s 2
f 158/171/73 157/170/29 169/183/35 170/184/77 
f 157/170/29 159/172/29 171/185/35 169/183/35 
f 159/172/29 160/173/29 172/186/35 171/185/35 
f 160/173/29 161/174/29 173/187/35 172/186/35 
f 161/174/29 162/175/74 174/188/78 173/187/35 
s 4
f 162/175/74 163/176/75 175/189/79 174/188/78 
s 2
f 163/176/75 164/177/25 176/190/31 175/189/79 
f 164/177/25 165/178/25 177/191/31 176/190/31 
f 165/178/25 166/179/25 178/192/31 177/191/31 
f 166/179/25 167/180/25 179/193/31 178/192/31 
f 167/180/25 168/181/76 180/194/80 179/193/31 
s 4
f 168/181/76 158/182/73 170/195/77 180/194/80 
s 2
f 170/184/77 169/183/35 181/196/41 182/197/81 
f 169/183/35 171/185/35 183/198/41 181/196/41 
f 171/185/35 172/186/35 184/199/41 183/198/41 
f 172/186/35 173/187/35 185/200/41 184/199/41 
f 173/187/35 174/188/78 186/201/82 185/200/41 
s 4
f 174/188/78 175/189/79 187/202/83 186/201/82 
s 2
f 175/189/79 176/190/31 188/203/37 187/202/83 
f 176/190/31 177/191/31 189/204/37 188/203/37 
f 177/191/31 178/192/31 190/205/37 189/204/37 
f 178/192/31 179/193/31 191/206/37 190/205/37 
f 179/193/31 180/194/80 192/207/84 191/206/37 
s 4
f 180/194/80 170/195/77 182/208/81 192/207/84 
s 2
f 182/197/81 181/196/41 193/209/47 194/210/85 
f 181/196/41 183/198/41 195/211/47 193/209/47 
f 183/198/41 184/199/41 196/212/47 195/211/47 
f 184/199/41 185/200/41 197/213/47 196/212/47 
f 185/200/41 186/201/82 198/214/86 197/213/47 
s 4
f 186/201/82 187/202/83 199/215/87 198/214/86 
s 2
f 187/202/83 188/203/37 200/216/88 199/215/87 
f 188/203/37 189/204/37 201/217/88 200/216/88 
f 189/204/37 190/205/37 202/218/88 201/217/88 
f 190/205/37 191/206/37 203/219/88 202/218/88 
f 191/206/37 192/207/84 204/220/89 203/219/88 
s 4
f 192/207/84 182/208/81 194/221/85 204/220/89 
s 2
f 194/210/85 193/209/47 205/222/53 206/223/90 
f 193/209/47 195/211/47 207/224/53 205/222/53 
f 195/211/47 196/212/47 208/225/53 207/224/53 
f 196/212/47 197/213/47 209/226/53 208/225/53 
f 197/213/47 198/214/86 210/227/91 209/226/53 
s 4
f 198/214/86 199/215/87 211/228/92 210/227/91 
s 2
f 199/215/87 200/216/88 212/229/49 211/228/92 
f 200/216/88 201/217/88 213/230/49 212/229/49 
f 201/217/88 202/218/88 214/231/49 213/230/49 
f 202/218/88 203/219/88 215/232/49 214/231/49 
f 203/219/88 204/220/89 216/233/93 215/232/49 
s 4
f 204/220/89 194/221/85 206/234/90 216/233/93 
s 2
f 206/223/90 205/222/53 2/235/2 1/236/1 
f 205/222/53 207/224/53 5/237/2 2/235/2 
f 207/224/53 208/225/53 7/238/2 5/237/2 
f 208/225/53 209/226/53 9/239/2 7/238/2 
f 209/226/53 210/227/91 11/240/5 9/239/2 
s 4
f 210/227/91 211/228/92 13/241/7 11/240/5 
s 2
f 211/228/92 212/229/49 15/242/9 13/241/7 
f 212/229/49 213/230/49 17/243/9 15/242/9 
f 213/230/49 214/231/49 19/244/9 17/243/9 
f 214/231/49 215/232/49 21/245/9 19/244/9 
f 215/232/49 216/233/93 23/246/11 21/245/9 
s 4
f 216/233/93 206/234/90 1/247/1 23/246/11 
# 216 polygons

