# MagicaVoxel @ Ephtracy

# group
g chest_wood

# material
mtllib chest_wood.mtl
usemtl palette

# normals
vn -1 0 0
vn 1 0 0
vn 0 0 1
vn 0 0 -1
vn 0 -1 0
vn 0 1 0

# texcoords
vt 0.537109 0.5
vt 0.876953 0.5
vt 0.982422 0.5

# verts
v -8 0 12.5
v -8 0 -12.5
v -8 1 11.5
v -8 1 -11.5
v -8 8 11.5
v -8 8 -11.5
v -8 10 12.5
v -8 10 -12.5
v -7 1 11.5
v -7 1 -11.5
v -7 8 11.5
v -7 8 -11.5
v -7 10 12.5
v -7 10 11.5
v -7 10 2.5
v -7 10 -2.5
v -7 10 -11.5
v -7 10 -12.5
v -7 12 2.5
v -7 12 -2.5
v -7 13 12.5
v -7 13 11.5
v -7 13 -11.5
v -7 13 -12.5
v -6 10 11.5
v -6 10 2.5
v -6 10 -2.5
v -6 10 -11.5
v -6 12 11.5
v -6 12 2.5
v -6 12 -2.5
v -6 12 -11.5
v -6 13 2.5
v -6 13 -2.5
v -5 12 11.5
v -5 12 2.5
v -5 12 -2.5
v -5 12 -11.5
v -5 13 12.5
v -5 13 11.5
v -5 13 2.5
v -5 13 -2.5
v -5 13 -11.5
v -5 13 -12.5
v -5 14 2.5
v -5 14 -2.5
v -5 15 12.5
v -5 15 11.5
v -5 15 -11.5
v -5 15 -12.5
v -4 13 11.5
v -4 13 2.5
v -4 13 -2.5
v -4 13 -11.5
v -4 14 11.5
v -4 14 2.5
v -4 14 -2.5
v -4 14 -11.5
v -4 15 2.5
v -4 15 -2.5
v 4 12 12.5
v 4 12 11.5
v 4 12 -11.5
v 4 12 -12.5
v 4 14 12.5
v 4 14 11.5
v 4 14 -11.5
v 4 14 -12.5
v 6 10 12.5
v 6 10 11.5
v 6 10 -11.5
v 6 10 -12.5
v 6 12 12.5
v 6 12 11.5
v 6 12 -11.5
v 6 12 -12.5
v 7 1 12.5
v 7 1 11.5
v 7 1 -11.5
v 7 1 -12.5
v 7 8 12.5
v 7 8 11.5
v 7 8 -11.5
v 7 8 -12.5
v -7 1 12.5
v -7 1 11.5
v -7 1 -11.5
v -7 1 -12.5
v -7 8 12.5
v -7 8 11.5
v -7 8 -11.5
v -7 8 -12.5
v -6 10 12.5
v -6 10 11.5
v -6 10 -11.5
v -6 10 -12.5
v -6 12 12.5
v -6 12 11.5
v -6 12 -11.5
v -6 12 -12.5
v -4 12 12.5
v -4 12 11.5
v -4 12 -11.5
v -4 12 -12.5
v -4 14 12.5
v -4 14 11.5
v -4 14 -11.5
v -4 14 -12.5
v 4 13 11.5
v 4 13 2.5
v 4 13 -2.5
v 4 13 -11.5
v 4 14 11.5
v 4 14 2.5
v 4 14 -2.5
v 4 14 -11.5
v 4 15 2.5
v 4 15 -2.5
v 5 12 11.5
v 5 12 2.5
v 5 12 -2.5
v 5 12 -11.5
v 5 13 12.5
v 5 13 11.5
v 5 13 2.5
v 5 13 -2.5
v 5 13 -11.5
v 5 13 -12.5
v 5 14 2.5
v 5 14 -2.5
v 5 15 12.5
v 5 15 11.5
v 5 15 -11.5
v 5 15 -12.5
v 6 10 11.5
v 6 10 2.5
v 6 10 -2.5
v 6 10 -11.5
v 6 12 11.5
v 6 12 2.5
v 6 12 -2.5
v 6 12 -11.5
v 6 13 2.5
v 6 13 -2.5
v 7 1 11.5
v 7 1 -11.5
v 7 7 2.5
v 7 7 -2.5
v 7 8 11.5
v 7 8 2.5
v 7 8 -2.5
v 7 8 -11.5
v 7 10 12.5
v 7 10 11.5
v 7 10 -11.5
v 7 10 -12.5
v 7 11 2.5
v 7 11 -2.5
v 7 12 2.5
v 7 12 -2.5
v 7 13 12.5
v 7 13 11.5
v 7 13 -11.5
v 7 13 -12.5
v 8 0 12.5
v 8 0 -12.5
v 8 1 11.5
v 8 1 -11.5
v 8 7 2.5
v 8 7 -2.5
v 8 8 11.5
v 8 8 2.5
v 8 8 1.5
v 8 8 -1.5
v 8 8 -2.5
v 8 8 -11.5
v 8 10 12.5
v 8 10 2.5
v 8 10 1.5
v 8 10 -1.5
v 8 10 -2.5
v 8 10 -12.5
v 8 11 2.5
v 8 11 -2.5
v -8 0 12.5
v -8 10 12.5
v -7 1 12.5
v -7 8 12.5
v -7 10 12.5
v -7 13 12.5
v -6 10 12.5
v -6 12 12.5
v -5 13 12.5
v -5 15 12.5
v -4 12 12.5
v -4 14 12.5
v 4 12 12.5
v 4 14 12.5
v 5 13 12.5
v 5 15 12.5
v 6 10 12.5
v 6 12 12.5
v 7 1 12.5
v 7 8 12.5
v 7 10 12.5
v 7 13 12.5
v 8 0 12.5
v 8 10 12.5
v -7 1 11.5
v -7 8 11.5
v -6 10 11.5
v -6 12 11.5
v -4 12 11.5
v -4 14 11.5
v 4 12 11.5
v 4 14 11.5
v 6 10 11.5
v 6 12 11.5
v 7 1 11.5
v 7 8 11.5
v -7 10 2.5
v -7 12 2.5
v -6 10 2.5
v -6 12 2.5
v -6 13 2.5
v -5 12 2.5
v -5 13 2.5
v -5 14 2.5
v -4 13 2.5
v -4 14 2.5
v -4 15 2.5
v 4 13 2.5
v 4 14 2.5
v 4 15 2.5
v 5 12 2.5
v 5 13 2.5
v 5 14 2.5
v 6 10 2.5
v 6 12 2.5
v 6 13 2.5
v 7 7 2.5
v 7 8 2.5
v 7 11 2.5
v 7 12 2.5
v 8 7 2.5
v 8 8 2.5
v 8 10 2.5
v 8 11 2.5
v -8 1 -11.5
v -8 8 -11.5
v -7 1 -11.5
v -7 8 -11.5
v -7 10 -11.5
v -7 13 -11.5
v -6 10 -11.5
v -6 12 -11.5
v -5 12 -11.5
v -5 13 -11.5
v -5 15 -11.5
v -4 13 -11.5
v -4 14 -11.5
v 4 13 -11.5
v 4 14 -11.5
v 5 12 -11.5
v 5 13 -11.5
v 5 15 -11.5
v 6 10 -11.5
v 6 12 -11.5
v 7 1 -11.5
v 7 8 -11.5
v 7 10 -11.5
v 7 13 -11.5
v 8 1 -11.5
v 8 8 -11.5
v -8 1 11.5
v -8 8 11.5
v -7 1 11.5
v -7 8 11.5
v -7 10 11.5
v -7 13 11.5
v -6 10 11.5
v -6 12 11.5
v -5 12 11.5
v -5 13 11.5
v -5 15 11.5
v -4 13 11.5
v -4 14 11.5
v 4 13 11.5
v 4 14 11.5
v 5 12 11.5
v 5 13 11.5
v 5 15 11.5
v 6 10 11.5
v 6 12 11.5
v 7 1 11.5
v 7 8 11.5
v 7 10 11.5
v 7 13 11.5
v 8 1 11.5
v 8 8 11.5
v -7 10 -2.5
v -7 12 -2.5
v -6 10 -2.5
v -6 12 -2.5
v -6 13 -2.5
v -5 12 -2.5
v -5 13 -2.5
v -5 14 -2.5
v -4 13 -2.5
v -4 14 -2.5
v -4 15 -2.5
v 4 13 -2.5
v 4 14 -2.5
v 4 15 -2.5
v 5 12 -2.5
v 5 13 -2.5
v 5 14 -2.5
v 6 10 -2.5
v 6 12 -2.5
v 6 13 -2.5
v 7 7 -2.5
v 7 8 -2.5
v 7 11 -2.5
v 7 12 -2.5
v 8 7 -2.5
v 8 8 -2.5
v 8 10 -2.5
v 8 11 -2.5
v -7 1 -11.5
v -7 8 -11.5
v -6 10 -11.5
v -6 12 -11.5
v -4 12 -11.5
v -4 14 -11.5
v 4 12 -11.5
v 4 14 -11.5
v 6 10 -11.5
v 6 12 -11.5
v 7 1 -11.5
v 7 8 -11.5
v -8 0 -12.5
v -8 10 -12.5
v -7 1 -12.5
v -7 8 -12.5
v -7 10 -12.5
v -7 13 -12.5
v -6 10 -12.5
v -6 12 -12.5
v -5 13 -12.5
v -5 15 -12.5
v -4 12 -12.5
v -4 14 -12.5
v 4 12 -12.5
v 4 14 -12.5
v 5 13 -12.5
v 5 15 -12.5
v 6 10 -12.5
v 6 12 -12.5
v 7 1 -12.5
v 7 8 -12.5
v 7 10 -12.5
v 7 13 -12.5
v 8 0 -12.5
v 8 10 -12.5
v -8 0 12.5
v 8 0 12.5
v -7 0 11.5
v 7 0 11.5
v -7 0 -11.5
v 7 0 -11.5
v -8 0 -12.5
v 8 0 -12.5
v 7 7 2.5
v 8 7 2.5
v 7 7 -2.5
v 8 7 -2.5
v -7 8 12.5
v 7 8 12.5
v -8 8 11.5
v -7 8 11.5
v 7 8 11.5
v 8 8 11.5
v 7 8 2.5
v 8 8 2.5
v 7 8 -2.5
v 8 8 -2.5
v -8 8 -11.5
v -7 8 -11.5
v 7 8 -11.5
v 8 8 -11.5
v -7 8 -12.5
v 7 8 -12.5
v -6 12 12.5
v -4 12 12.5
v 4 12 12.5
v 6 12 12.5
v -6 12 11.5
v -4 12 11.5
v 4 12 11.5
v 6 12 11.5
v -6 12 -11.5
v -4 12 -11.5
v 4 12 -11.5
v 6 12 -11.5
v -6 12 -12.5
v -4 12 -12.5
v 4 12 -12.5
v 6 12 -12.5
v -4 14 12.5
v 4 14 12.5
v -4 14 11.5
v 4 14 11.5
v -4 14 -11.5
v 4 14 -11.5
v -4 14 -12.5
v 4 14 -12.5
v -7 1 12.5
v 7 1 12.5
v -8 1 11.5
v -7 1 11.5
v 7 1 11.5
v 8 1 11.5
v -8 1 -11.5
v -7 1 -11.5
v 7 1 -11.5
v 8 1 -11.5
v -7 1 -12.5
v 7 1 -12.5
v -8 10 12.5
v -7 10 12.5
v -6 10 12.5
v 6 10 12.5
v 7 10 12.5
v 8 10 12.5
v -7 10 11.5
v -6 10 11.5
v 6 10 11.5
v 7 10 11.5
v -7 10 2.5
v -6 10 2.5
v 6 10 2.5
v 8 10 2.5
v -7 10 -2.5
v -6 10 -2.5
v 6 10 -2.5
v 8 10 -2.5
v -7 10 -11.5
v -6 10 -11.5
v 6 10 -11.5
v 7 10 -11.5
v -8 10 -12.5
v -7 10 -12.5
v -6 10 -12.5
v 6 10 -12.5
v 7 10 -12.5
v 8 10 -12.5
v 7 11 2.5
v 8 11 2.5
v 7 11 -2.5
v 8 11 -2.5
v -6 12 11.5
v -5 12 11.5
v 5 12 11.5
v 6 12 11.5
v -7 12 2.5
v -6 12 2.5
v -5 12 2.5
v 5 12 2.5
v 6 12 2.5
v 7 12 2.5
v -7 12 -2.5
v -6 12 -2.5
v -5 12 -2.5
v 5 12 -2.5
v 6 12 -2.5
v 7 12 -2.5
v -6 12 -11.5
v -5 12 -11.5
v 5 12 -11.5
v 6 12 -11.5
v -7 13 12.5
v -5 13 12.5
v 5 13 12.5
v 7 13 12.5
v -7 13 11.5
v -5 13 11.5
v -4 13 11.5
v 4 13 11.5
v 5 13 11.5
v 7 13 11.5
v -6 13 2.5
v -5 13 2.5
v -4 13 2.5
v 4 13 2.5
v 5 13 2.5
v 6 13 2.5
v -6 13 -2.5
v -5 13 -2.5
v -4 13 -2.5
v 4 13 -2.5
v 5 13 -2.5
v 6 13 -2.5
v -7 13 -11.5
v -5 13 -11.5
v -4 13 -11.5
v 4 13 -11.5
v 5 13 -11.5
v 7 13 -11.5
v -7 13 -12.5
v -5 13 -12.5
v 5 13 -12.5
v 7 13 -12.5
v -4 14 11.5
v 4 14 11.5
v -5 14 2.5
v -4 14 2.5
v 4 14 2.5
v 5 14 2.5
v -5 14 -2.5
v -4 14 -2.5
v 4 14 -2.5
v 5 14 -2.5
v -4 14 -11.5
v 4 14 -11.5
v -5 15 12.5
v 5 15 12.5
v -5 15 11.5
v 5 15 11.5
v -4 15 2.5
v 4 15 2.5
v -4 15 -2.5
v 4 15 -2.5
v -5 15 -11.5
v 5 15 -11.5
v -5 15 -12.5
v 5 15 -12.5

# faces
f 3/3/1 2/3/1 1/3/1
f 4/3/1 2/3/1 3/3/1
f 5/3/1 3/3/1 1/3/1
f 6/3/1 2/3/1 4/3/1
f 7/3/1 5/3/1 1/3/1
f 7/3/1 6/3/1 5/3/1
f 8/3/1 2/3/1 6/3/1
f 8/3/1 6/3/1 7/3/1
f 11/1/1 10/1/1 9/1/1
f 12/1/1 10/1/1 11/1/1
f 19/3/1 16/3/1 15/3/1
f 20/3/1 16/3/1 19/3/1
f 21/3/1 14/3/1 13/3/1
f 22/3/1 14/3/1 21/3/1
f 23/3/1 18/3/1 17/3/1
f 24/3/1 18/3/1 23/3/1
f 29/1/1 26/1/1 25/1/1
f 30/1/1 26/1/1 29/1/1
f 31/1/1 28/1/1 27/1/1
f 32/1/1 28/1/1 31/1/1
f 33/3/1 31/3/1 30/3/1
f 34/3/1 31/3/1 33/3/1
f 40/1/1 36/1/1 35/1/1
f 41/1/1 36/1/1 40/1/1
f 42/1/1 38/1/1 37/1/1
f 43/1/1 38/1/1 42/1/1
f 45/3/1 42/3/1 41/3/1
f 46/3/1 42/3/1 45/3/1
f 47/3/1 40/3/1 39/3/1
f 48/3/1 40/3/1 47/3/1
f 49/3/1 44/3/1 43/3/1
f 50/3/1 44/3/1 49/3/1
f 55/1/1 52/1/1 51/1/1
f 56/1/1 52/1/1 55/1/1
f 57/1/1 54/1/1 53/1/1
f 58/1/1 54/1/1 57/1/1
f 59/3/1 57/3/1 56/3/1
f 60/3/1 57/3/1 59/3/1
f 65/3/1 62/3/1 61/3/1
f 66/3/1 62/3/1 65/3/1
f 67/3/1 64/3/1 63/3/1
f 68/3/1 64/3/1 67/3/1
f 73/3/1 70/3/1 69/3/1
f 74/3/1 70/3/1 73/3/1
f 75/3/1 72/3/1 71/3/1
f 76/3/1 72/3/1 75/3/1
f 81/3/1 78/3/1 77/3/1
f 82/3/1 78/3/1 81/3/1
f 83/3/1 80/3/1 79/3/1
f 84/3/1 80/3/1 83/3/1
f 85/3/2 86/3/2 89/3/2
f 89/3/2 86/3/2 90/3/2
f 87/3/2 88/3/2 91/3/2
f 91/3/2 88/3/2 92/3/2
f 93/3/2 94/3/2 97/3/2
f 97/3/2 94/3/2 98/3/2
f 95/3/2 96/3/2 99/3/2
f 99/3/2 96/3/2 100/3/2
f 101/3/2 102/3/2 105/3/2
f 105/3/2 102/3/2 106/3/2
f 103/3/2 104/3/2 107/3/2
f 107/3/2 104/3/2 108/3/2
f 109/1/2 110/1/2 113/1/2
f 113/1/2 110/1/2 114/1/2
f 111/1/2 112/1/2 115/1/2
f 115/1/2 112/1/2 116/1/2
f 114/3/2 115/3/2 117/3/2
f 117/3/2 115/3/2 118/3/2
f 119/1/2 120/1/2 124/1/2
f 124/1/2 120/1/2 125/1/2
f 121/1/2 122/1/2 126/1/2
f 126/1/2 122/1/2 127/1/2
f 125/3/2 126/3/2 129/3/2
f 129/3/2 126/3/2 130/3/2
f 123/3/2 124/3/2 131/3/2
f 131/3/2 124/3/2 132/3/2
f 127/3/2 128/3/2 133/3/2
f 133/3/2 128/3/2 134/3/2
f 135/1/2 136/1/2 139/1/2
f 139/1/2 136/1/2 140/1/2
f 137/1/2 138/1/2 141/1/2
f 141/1/2 138/1/2 142/1/2
f 140/3/2 141/3/2 143/3/2
f 143/3/2 141/3/2 144/3/2
f 145/1/2 146/1/2 147/1/2
f 147/1/2 146/1/2 148/1/2
f 145/1/2 147/1/2 149/1/2
f 149/1/2 147/1/2 150/1/2
f 148/1/2 146/1/2 151/1/2
f 151/1/2 146/1/2 152/1/2
f 157/3/2 158/3/2 159/3/2
f 159/3/2 158/3/2 160/3/2
f 153/3/2 154/3/2 161/3/2
f 161/3/2 154/3/2 162/3/2
f 155/3/2 156/3/2 163/3/2
f 163/3/2 156/3/2 164/3/2
f 165/3/2 166/3/2 167/3/2
f 167/3/2 166/3/2 168/3/2
f 165/3/2 167/3/2 171/3/2
f 169/3/2 170/3/2 172/3/2
f 172/3/2 170/3/2 173/3/2
f 173/3/2 170/3/2 174/3/2
f 174/3/2 170/3/2 175/3/2
f 168/3/2 166/3/2 176/3/2
f 165/3/2 171/3/2 177/3/2
f 171/3/2 172/3/2 177/3/2
f 172/3/2 173/3/2 177/3/2
f 177/3/2 173/3/2 178/3/2
f 173/1/2 174/1/2 179/1/2
f 178/3/2 173/3/2 179/3/2
f 175/3/2 176/3/2 180/3/2
f 179/1/2 174/1/2 180/1/2
f 174/3/2 175/3/2 180/3/2
f 180/3/2 176/3/2 181/3/2
f 176/3/2 166/3/2 182/3/2
f 181/3/2 176/3/2 182/3/2
f 178/3/2 179/3/2 183/3/2
f 180/3/2 181/3/2 183/3/2
f 179/3/2 180/3/2 183/3/2
f 183/3/2 181/3/2 184/3/2
f 187/3/3 186/3/3 185/3/3
f 188/3/3 186/3/3 187/3/3
f 189/3/3 186/3/3 188/3/3
f 191/3/3 190/3/3 189/3/3
f 191/3/3 189/3/3 188/3/3
f 192/3/3 190/3/3 191/3/3
f 193/3/3 190/3/3 192/3/3
f 195/3/3 193/3/3 192/3/3
f 195/3/3 194/3/3 193/3/3
f 196/3/3 194/3/3 195/3/3
f 198/3/3 194/3/3 196/3/3
f 199/3/3 198/3/3 197/3/3
f 200/3/3 194/3/3 198/3/3
f 200/3/3 198/3/3 199/3/3
f 201/3/3 191/3/3 188/3/3
f 202/3/3 199/3/3 197/3/3
f 203/3/3 187/3/3 185/3/3
f 204/3/3 202/3/3 201/3/3
f 204/3/3 201/3/3 188/3/3
f 205/3/3 202/3/3 204/3/3
f 206/3/3 199/3/3 202/3/3
f 206/3/3 202/3/3 205/3/3
f 207/3/3 203/3/3 185/3/3
f 207/3/3 205/3/3 204/3/3
f 207/3/3 204/3/3 203/3/3
f 208/3/3 205/3/3 207/3/3
f 213/1/3 212/1/3 211/1/3
f 215/1/3 213/1/3 211/1/3
f 215/1/3 214/1/3 213/1/3
f 216/1/3 214/1/3 215/1/3
f 217/1/3 215/1/3 211/1/3
f 218/1/3 215/1/3 217/1/3
f 219/1/3 210/1/3 209/1/3
f 220/1/3 210/1/3 219/1/3
f 223/3/3 222/3/3 221/3/3
f 224/3/3 222/3/3 223/3/3
f 226/3/3 225/3/3 224/3/3
f 227/3/3 225/3/3 226/3/3
f 229/3/3 228/3/3 227/3/3
f 230/3/3 228/3/3 229/3/3
f 233/3/3 231/3/3 230/3/3
f 234/3/3 231/3/3 233/3/3
f 236/3/3 233/3/3 232/3/3
f 237/3/3 233/3/3 236/3/3
f 239/3/3 236/3/3 235/3/3
f 240/3/3 236/3/3 239/3/3
f 243/3/3 239/3/3 238/3/3
f 244/3/3 239/3/3 243/3/3
f 245/3/3 242/3/3 241/3/3
f 246/3/3 242/3/3 245/3/3
f 247/3/3 243/3/3 238/3/3
f 248/3/3 243/3/3 247/3/3
f 251/3/3 250/3/3 249/3/3
f 252/3/3 250/3/3 251/3/3
f 255/3/3 254/3/3 253/3/3
f 256/3/3 254/3/3 255/3/3
f 257/3/3 254/3/3 256/3/3
f 258/3/3 254/3/3 257/3/3
f 260/3/3 259/3/3 258/3/3
f 261/3/3 259/3/3 260/3/3
f 263/3/3 259/3/3 261/3/3
f 265/3/3 263/3/3 262/3/3
f 266/3/3 259/3/3 263/3/3
f 266/3/3 263/3/3 265/3/3
f 268/3/3 265/3/3 264/3/3
f 271/3/3 268/3/3 267/3/3
f 272/3/3 265/3/3 268/3/3
f 272/3/3 268/3/3 271/3/3
f 273/3/3 270/3/3 269/3/3
f 274/3/3 270/3/3 273/3/3
f 275/3/4 276/3/4 277/3/4
f 277/3/4 276/3/4 278/3/4
f 279/3/4 280/3/4 281/3/4
f 281/3/4 280/3/4 282/3/4
f 282/3/4 280/3/4 283/3/4
f 283/3/4 280/3/4 284/3/4
f 284/3/4 285/3/4 286/3/4
f 286/3/4 285/3/4 287/3/4
f 287/3/4 285/3/4 289/3/4
f 288/3/4 289/3/4 291/3/4
f 289/3/4 285/3/4 292/3/4
f 291/3/4 289/3/4 292/3/4
f 290/3/4 291/3/4 294/3/4
f 293/3/4 294/3/4 297/3/4
f 294/3/4 291/3/4 298/3/4
f 297/3/4 294/3/4 298/3/4
f 295/3/4 296/3/4 299/3/4
f 299/3/4 296/3/4 300/3/4
f 301/3/4 302/3/4 303/3/4
f 303/3/4 302/3/4 304/3/4
f 304/3/4 305/3/4 306/3/4
f 306/3/4 305/3/4 307/3/4
f 307/3/4 308/3/4 309/3/4
f 309/3/4 308/3/4 310/3/4
f 310/3/4 311/3/4 313/3/4
f 313/3/4 311/3/4 314/3/4
f 312/3/4 313/3/4 316/3/4
f 316/3/4 313/3/4 317/3/4
f 315/3/4 316/3/4 319/3/4
f 319/3/4 316/3/4 320/3/4
f 318/3/4 319/3/4 323/3/4
f 323/3/4 319/3/4 324/3/4
f 321/3/4 322/3/4 325/3/4
f 325/3/4 322/3/4 326/3/4
f 318/3/4 323/3/4 327/3/4
f 327/3/4 323/3/4 328/3/4
f 331/1/4 332/1/4 333/1/4
f 331/1/4 333/1/4 335/1/4
f 333/1/4 334/1/4 335/1/4
f 335/1/4 334/1/4 336/1/4
f 331/1/4 335/1/4 337/1/4
f 337/1/4 335/1/4 338/1/4
f 329/1/4 330/1/4 339/1/4
f 339/1/4 330/1/4 340/1/4
f 341/3/4 342/3/4 343/3/4
f 343/3/4 342/3/4 344/3/4
f 344/3/4 342/3/4 345/3/4
f 345/3/4 346/3/4 347/3/4
f 344/3/4 345/3/4 347/3/4
f 347/3/4 346/3/4 348/3/4
f 348/3/4 346/3/4 349/3/4
f 348/3/4 349/3/4 351/3/4
f 349/3/4 350/3/4 351/3/4
f 351/3/4 350/3/4 352/3/4
f 352/3/4 350/3/4 354/3/4
f 353/3/4 354/3/4 355/3/4
f 354/3/4 350/3/4 356/3/4
f 355/3/4 354/3/4 356/3/4
f 344/3/4 347/3/4 357/3/4
f 353/3/4 355/3/4 358/3/4
f 341/3/4 343/3/4 359/3/4
f 357/3/4 358/3/4 360/3/4
f 344/3/4 357/3/4 360/3/4
f 360/3/4 358/3/4 361/3/4
f 358/3/4 355/3/4 362/3/4
f 361/3/4 358/3/4 362/3/4
f 341/3/4 359/3/4 363/3/4
f 360/3/4 361/3/4 363/3/4
f 359/3/4 360/3/4 363/3/4
f 363/3/4 361/3/4 364/3/4
f 367/3/5 366/3/5 365/3/5
f 368/3/5 366/3/5 367/3/5
f 369/3/5 367/3/5 365/3/5
f 369/1/5 368/1/5 367/1/5
f 370/3/5 366/3/5 368/3/5
f 370/1/5 368/1/5 369/1/5
f 371/3/5 369/3/5 365/3/5
f 371/3/5 370/3/5 369/3/5
f 372/3/5 366/3/5 370/3/5
f 372/3/5 370/3/5 371/3/5
f 375/3/5 374/3/5 373/3/5
f 376/3/5 374/3/5 375/3/5
f 380/3/5 378/3/5 377/3/5
f 381/3/5 378/3/5 380/3/5
f 383/3/5 382/3/5 381/3/5
f 384/3/5 382/3/5 383/3/5
f 387/3/5 380/3/5 379/3/5
f 388/3/5 380/3/5 387/3/5
f 389/3/5 386/3/5 385/3/5
f 390/3/5 386/3/5 389/3/5
f 391/3/5 389/3/5 388/3/5
f 392/3/5 389/3/5 391/3/5
f 397/3/5 394/3/5 393/3/5
f 398/3/5 394/3/5 397/3/5
f 399/3/5 396/3/5 395/3/5
f 400/3/5 396/3/5 399/3/5
f 405/3/5 402/3/5 401/3/5
f 406/3/5 402/3/5 405/3/5
f 407/3/5 404/3/5 403/3/5
f 408/3/5 404/3/5 407/3/5
f 411/3/5 410/3/5 409/3/5
f 412/3/5 410/3/5 411/3/5
f 415/3/5 414/3/5 413/3/5
f 416/3/5 414/3/5 415/3/5
f 417/3/6 418/3/6 420/3/6
f 420/3/6 418/3/6 421/3/6
f 419/3/6 420/3/6 423/3/6
f 423/3/6 420/3/6 424/3/6
f 421/3/6 422/3/6 425/3/6
f 425/3/6 422/3/6 426/3/6
f 424/3/6 425/3/6 427/3/6
f 427/3/6 425/3/6 428/3/6
f 429/3/6 430/3/6 435/3/6
f 431/3/6 432/3/6 436/3/6
f 436/3/6 432/3/6 437/3/6
f 433/3/6 434/3/6 438/3/6
f 429/3/6 435/3/6 439/3/6
f 435/3/6 436/3/6 439/3/6
f 439/3/6 436/3/6 440/3/6
f 437/3/6 438/3/6 441/3/6
f 438/3/6 434/3/6 442/3/6
f 441/3/6 438/3/6 442/3/6
f 429/3/6 439/3/6 443/3/6
f 429/3/6 443/3/6 447/3/6
f 443/3/6 444/3/6 447/3/6
f 447/3/6 444/3/6 448/3/6
f 445/3/6 446/3/6 449/3/6
f 449/3/6 446/3/6 450/3/6
f 429/3/6 447/3/6 451/3/6
f 451/3/6 447/3/6 452/3/6
f 448/3/6 449/3/6 453/3/6
f 453/3/6 449/3/6 454/3/6
f 450/3/6 446/3/6 455/3/6
f 455/3/6 446/3/6 456/3/6
f 457/3/6 458/3/6 459/3/6
f 459/3/6 458/3/6 460/3/6
f 461/1/6 462/1/6 466/1/6
f 466/1/6 462/1/6 467/1/6
f 463/1/6 464/1/6 468/1/6
f 468/1/6 464/1/6 469/1/6
f 465/3/6 466/3/6 471/3/6
f 471/3/6 466/3/6 472/3/6
f 469/3/6 470/3/6 475/3/6
f 475/3/6 470/3/6 476/3/6
f 472/1/6 473/1/6 477/1/6
f 477/1/6 473/1/6 478/1/6
f 474/1/6 475/1/6 479/1/6
f 479/1/6 475/1/6 480/1/6
f 481/3/6 482/3/6 485/3/6
f 485/3/6 482/3/6 486/3/6
f 483/3/6 484/3/6 489/3/6
f 489/3/6 484/3/6 490/3/6
f 486/1/6 487/1/6 492/1/6
f 492/1/6 487/1/6 493/1/6
f 488/1/6 489/1/6 494/1/6
f 494/1/6 489/1/6 495/1/6
f 491/3/6 492/3/6 497/3/6
f 497/3/6 492/3/6 498/3/6
f 495/3/6 496/3/6 501/3/6
f 501/3/6 496/3/6 502/3/6
f 498/1/6 499/1/6 504/1/6
f 504/1/6 499/1/6 505/1/6
f 500/1/6 501/1/6 506/1/6
f 506/1/6 501/1/6 507/1/6
f 503/3/6 504/3/6 509/3/6
f 509/3/6 504/3/6 510/3/6
f 507/3/6 508/3/6 511/3/6
f 511/3/6 508/3/6 512/3/6
f 513/1/6 514/1/6 516/1/6
f 516/1/6 514/1/6 517/1/6
f 515/3/6 516/3/6 519/3/6
f 519/3/6 516/3/6 520/3/6
f 517/3/6 518/3/6 521/3/6
f 521/3/6 518/3/6 522/3/6
f 520/1/6 521/1/6 523/1/6
f 523/1/6 521/1/6 524/1/6
f 525/3/6 526/3/6 527/3/6
f 527/3/6 526/3/6 528/3/6
f 529/3/6 530/3/6 531/3/6
f 531/3/6 530/3/6 532/3/6
f 533/3/6 534/3/6 535/3/6
f 535/3/6 534/3/6 536/3/6
